<svg xmlns="http://www.w3.org/2000/svg"
     width="600" height="600"
     viewBox="0 0 600 600">

  <!-- Background -->
  <rect width="600" height="600" fill="#f0f4f8" rx="6"/>

  <!-- Adjacent census sections (7 neighbors) -->
  <path d="M369.72,80.12 L364.7,75.86 L313.51,118.83 L296.11,132.98 L261.76,161.98 L279.51,177.05 L329.57,219.38 L318.54,228.8 L315.6,231.75 L306.58,239.32 L301.68,242.98 L292.65,250.5 L293.27,250.95 L288.58,259.19 L282.35,271.15 L285.74,272.95 L277.82,284.11 L278.62,287.12 L273.15,294.38 L268.46,299.51 L258.53,312.99 L256.49,314.77 L245.77,329.12 L251.25,333.75 L258.12,338.47 L259.17,338.92 L265.47,342.31 L276.61,341.91 L279.19,341.76 L290.41,341.39 L304.64,322.53 L306.4,320.14 L302.57,318.22 L310.46,307.93 L314.28,303.09 L336.66,314.94 L341.07,316.98 L367.01,303.59 L397.69,287.8 L407.17,282.97 L422.21,275.16 L435.09,268.36 L447.89,261.51 L457.89,256.04 L469.99,249.28 L473.22,247.21 L487.65,238.66 L492.22,235.79 L496.69,232.82 L499.83,230.64 L501.38,229.53 L505.19,226.68 L511.33,221.87 L513.43,220.15 L524.14,211.12 L519.21,206.74 L508.57,197.83 L508.55,197.87 L507.94,197.3 L500.43,190.84 L488.37,180.55 L488.45,180.49 L485.43,178.02 L475.28,169.29 L475.22,169.35 L473.63,168.03 L469.32,164.27 L410.84,115.0 L369.72,80.12 Z"
        fill="#b0c4d8" fill-opacity="0.35"
        stroke="#8aaec8" stroke-width="1" stroke-linejoin="round"/>
  <path d="M259.17,338.92 L258.12,338.47 L250.86,347.18 L247.22,349.85 L204.14,409.25 L192.13,402.93 L184.67,399.19 L183.3,398.13 L166.49,386.67 L160.74,382.79 L156.3,379.66 L150.74,375.53 L141.9,368.84 L139.66,367.2 L137.6,367.99 L137.26,368.19 L133.36,371.98 L129.62,375.81 L126.93,378.37 L125.74,379.59 L121.82,383.71 L113.42,393.8 L106.11,402.42 L99.04,407.16 L101.08,410.31 L106.45,420.41 L112.39,431.85 L132.42,461.19 L147.85,479.89 L146.95,480.82 L145.55,482.93 L144.76,485.27 L144.63,487.65 L144.95,489.23 L145.6,490.51 L146.56,491.66 L147.76,492.6 L144.64,497.66 L153.06,502.03 L152.93,502.2 L153.75,502.63 L153.87,502.46 L154.2,502.63 L154.08,502.8 L154.82,503.18 L154.94,503.01 L160.54,505.96 L161.57,507.8 L166.61,510.41 L168.73,511.42 L170.4,512.27 L173.45,507.95 L204.62,464.44 L211.82,454.2 L214.7,450.26 L223.2,438.3 L226.54,433.73 L231.77,426.28 L257.01,390.98 L259.42,387.48 L260.05,386.67 L262.04,387.68 L263.81,388.52 L264.85,389.09 L267.38,396.74 L271.12,407.1 L272.87,412.29 L275.6,420.13 L280.53,434.5 L282.29,439.21 L278.88,443.95 L266.9,460.87 L262.65,466.96 L241.32,496.83 L243.25,503.86 L244.79,509.08 L266.25,520.03 L274.56,524.14 L277.69,523.5 L280.79,519.28 L286.88,510.55 L290.04,506.13 L290.72,505.09 L306.7,482.7 L320.27,463.34 L322.43,460.46 L323.06,460.3 L320.21,452.32 L316.93,442.69 L311.76,428.1 L306.12,411.7 L303.77,404.69 L296.35,383.4 L293.89,376.12 L291.56,369.69 L289.25,363.0 L288.09,361.58 L280.19,357.99 L279.68,356.55 L279.46,356.27 L278.9,355.89 L278.46,355.73 L278.47,355.7 L272.31,352.82 L272.16,353.01 L271.06,352.52 L271.21,352.31 L267.17,350.45 L265.91,344.42 L263.36,342.27 L263.09,341.9 L262.87,341.51 L262.77,341.16 L262.75,340.85 L259.17,338.92 Z"
        fill="#b0c4d8" fill-opacity="0.35"
        stroke="#8aaec8" stroke-width="1" stroke-linejoin="round"/>
  <path d="M224.38,337.14 L224.29,337.1 L219.78,342.37 L216.55,346.31 L213.15,350.98 L212.23,352.58 L210.32,356.11 L208.49,359.72 L206.08,363.25 L202.26,368.37 L199.34,372.41 L198.59,373.62 L196.74,372.62 L188.77,368.67 L186.51,367.63 L183.49,366.44 L177.58,364.29 L166.48,360.81 L162.81,359.73 L161.42,359.36 L160.77,359.12 L154.37,361.97 L151.15,363.18 L139.66,367.2 L141.9,368.84 L150.74,375.53 L156.3,379.66 L160.74,382.79 L166.49,386.67 L183.3,398.13 L184.67,399.19 L192.13,402.93 L204.14,409.25 L247.22,349.85 L250.86,347.18 L249.75,346.7 L224.38,337.14 Z"
        fill="#b0c4d8" fill-opacity="0.35"
        stroke="#8aaec8" stroke-width="1" stroke-linejoin="round"/>
  <path d="M142.09,302.73 L141.37,302.16 L131.0,311.31 L123.33,318.32 L108.76,331.3 L115.69,336.67 L118.95,339.25 L121.52,341.16 L124.52,342.71 L128.34,344.59 L132.24,346.46 L135.11,347.63 L139.41,349.58 L140.67,350.24 L141.82,351.03 L142.33,351.31 L151.37,354.76 L154.42,356.07 L159.61,358.58 L161.08,359.24 L166.48,360.81 L177.58,364.29 L183.49,366.44 L186.51,367.63 L188.77,368.67 L196.74,372.62 L198.59,373.62 L199.34,372.41 L202.26,368.37 L206.08,363.25 L208.49,359.72 L210.32,356.11 L212.23,352.58 L213.15,350.98 L214.39,349.28 L206.37,345.92 L200.28,344.11 L193.49,342.92 L186.51,337.48 L184.38,336.18 L178.84,333.45 L174.81,329.14 L165.06,323.16 L159.83,318.64 L152.33,311.46 L148.39,307.74 L142.09,302.73 Z"
        fill="#b0c4d8" fill-opacity="0.35"
        stroke="#8aaec8" stroke-width="1" stroke-linejoin="round"/>
  <path d="M201.73,252.29 L199.33,250.6 L179.79,267.93 L176.39,270.87 L206.49,296.2 L227.26,313.82 L245.77,329.12 L256.49,314.77 L258.53,312.99 L268.46,299.51 L273.15,294.38 L265.03,290.43 L253.83,284.92 L252.82,286.29 L242.43,281.71 L244.4,278.54 L246.55,275.57 L243.84,274.2 L241.05,272.92 L234.13,270.22 L227.99,268.1 L213.06,262.59 L208.35,259.77 L211.42,257.08 L210.81,256.5 L208.03,254.04 L205.91,252.25 L204.21,253.65 L204.02,253.73 L203.81,253.67 L201.73,252.29 Z"
        fill="#b0c4d8" fill-opacity="0.35"
        stroke="#8aaec8" stroke-width="1" stroke-linejoin="round"/>
  <path d="M136.06,237.14 L125.9,228.48 L124.65,229.47 L123.97,231.14 L124.35,232.26 L93.04,258.83 L88.17,261.34 L88.6,261.71 L91.0,263.47 L90.17,265.0 L87.92,268.38 L86.87,270.08 L86.12,271.14 L85.29,272.15 L84.17,273.22 L79.73,277.8 L77.79,280.43 L77.26,281.24 L77.0,281.75 L76.29,283.82 L76.06,284.89 L75.93,285.99 L75.86,286.91 L75.86,288.31 L76.04,290.77 L76.72,293.05 L79.69,301.74 L79.97,302.46 L80.81,304.37 L82.51,307.39 L84.03,309.74 L85.17,311.29 L86.02,312.28 L86.93,313.23 L91.48,317.68 L100.7,326.55 L102.67,328.29 L108.76,331.3 L123.33,318.32 L131.0,311.31 L149.82,294.72 L158.23,287.47 L169.44,277.24 L173.27,273.66 L176.39,270.87 L136.06,237.14 Z"
        fill="#b0c4d8" fill-opacity="0.35"
        stroke="#8aaec8" stroke-width="1" stroke-linejoin="round"/>
  <path d="M167.01,199.11 L165.99,198.39 L152.39,210.57 L147.29,214.89 L132.0,227.47 L130.37,226.77 L127.93,226.76 L125.9,228.48 L136.06,237.14 L176.39,270.87 L179.79,267.93 L199.33,250.6 L212.51,238.71 L217.63,234.21 L215.4,232.49 L207.19,227.08 L206.33,225.19 L202.34,222.59 L203.76,219.54 L198.67,217.25 L192.51,214.36 L191.9,215.17 L189.93,214.26 L188.48,213.53 L184.79,211.36 L182.59,209.84 L179.28,207.72 L167.01,199.11 Z"
        fill="#b0c4d8" fill-opacity="0.35"
        stroke="#8aaec8" stroke-width="1" stroke-linejoin="round"/>

  <!-- Matched census section -->
  <path d="M179.01,273.06 L176.39,270.87 L173.27,273.66 L169.44,277.24 L158.23,287.47 L149.82,294.72 L141.37,302.16 L148.39,307.74 L152.33,311.46 L159.83,318.64 L165.06,323.16 L174.81,329.14 L178.84,333.45 L184.38,336.18 L186.51,337.48 L193.49,342.92 L200.28,344.11 L206.37,345.92 L214.39,349.28 L216.55,346.31 L219.78,342.37 L224.29,337.1 L249.75,346.7 L250.86,347.18 L258.12,338.47 L251.25,333.75 L245.77,329.12 L227.26,313.82 L206.49,296.2 L179.01,273.06 Z"
        fill="#4e79a7" fill-opacity="0.45"
        stroke="#2c5f8a" stroke-width="2.5"
        stroke-linejoin="round"/>

  <!-- Query point -->
  <circle cx="212.21" cy="337.05" r="6"
          fill="#e05c2a" stroke="white" stroke-width="2"/>
  <circle cx="212.21" cy="337.05" r="13"
          fill="none" stroke="#e05c2a" stroke-width="1.5" opacity="0.5"/>

  <!-- Point label -->
  <text x="228.21" y="330.05"
        font-family="monospace" font-size="11" fill="#c0421a">(41.3814421, 2.1802632)</text>

  <!-- Title -->
  <text x="300" y="20"
        text-anchor="middle" font-family="sans-serif" font-size="13"
        font-weight="bold" fill="#222">Ciutat Vella · el Barri Gòtic (seccio 026)</text>

  <!-- Legend -->
  <rect x="40" y="566" width="12" height="10"
        fill="#4e79a7" fill-opacity="0.45" stroke="#2c5f8a" stroke-width="1"/>
  <text x="56" y="575"
        font-family="sans-serif" font-size="10" fill="#555">matched seccio</text>
  <rect x="145" y="566" width="12" height="10"
        fill="#b0c4d8" fill-opacity="0.6" stroke="#8aaec8" stroke-width="1"/>
  <text x="161" y="575"
        font-family="sans-serif" font-size="10" fill="#555">adjacent (7)</text>
  <circle cx="260" cy="571" r="5"
          fill="#e05c2a" stroke="white" stroke-width="1.5"/>
  <text x="270" y="575"
        font-family="sans-serif" font-size="10" fill="#555">query point</text>

  <!-- Bounding-box corner labels -->
  <text x="42" y="35"
        font-family="monospace" font-size="9" fill="#aaa">41.39276, 2.17292</text>
  <text x="558" y="588"
        text-anchor="end" font-family="monospace" font-size="9" fill="#aaa">41.37295, 2.19510</text>
</svg>